<?xml version="1.0" encoding="UTF-8"?>
<svg id="Layer_2" data-name="Layer 2" xmlns="http://www.w3.org/2000/svg" viewBox="0 0 60.82 63.23">
  <defs>
    <style>
      .cls-1 {
        fill: #fcc6f9;
      }
    </style>
  </defs>
  <g id="Layer_1-2" data-name="Layer 1">
    <path class="cls-1" d="m45.14,58.43h-3.79c-1.4.01-2.77.46-3.9,1.29l-3.06,2.24c-2.33,1.7-5.48,1.7-7.81.02l-3.07-2.22c-1.14-.82-2.51-1.26-3.91-1.26h-3.79c-2.88.01-5.44-1.84-6.33-4.57l-1.18-3.61c-.44-1.33-1.28-2.5-2.42-3.32l-3.07-2.22c-2.33-1.69-3.31-4.69-2.43-7.43l1.16-3.61c.43-1.34.43-2.77,0-4.11l-1.18-3.61c-.9-2.74.07-5.74,2.4-7.44l3.06-2.24c1.13-.83,1.98-1.99,2.41-3.33l1.16-3.61c.88-2.74,3.43-4.6,6.31-4.61h3.79c1.4-.01,2.77-.46,3.9-1.29l3.06-2.24c2.33-1.7,5.48-1.7,7.81-.02l3.07,2.22c1.14.82,2.51,1.26,3.91,1.26h3.79c2.88-.01,5.44,1.84,6.33,4.57l1.18,3.61c.44,1.33,1.28,2.5,2.42,3.32l3.07,2.22c2.33,1.69,3.31,4.69,2.43,7.43l-1.16,3.61c-.43,1.34-.43,2.77,0,4.11l1.18,3.61c.9,2.74-.07,5.74-2.4,7.44l-3.06,2.24c-1.13.83-1.98,1.99-2.41,3.33l-1.16,3.61c-.88,2.74-3.43,4.6-6.31,4.61Z"/>
  </g>
</svg>